<mxfile host="Electron" agent="Mozilla/5.0 (Windows NT 10.0; Win64; x64) AppleWebKit/537.36 (KHTML, like Gecko) draw.io/28.0.6 Chrome/138.0.7204.100 Electron/37.2.3 Safari/537.36" version="28.0.6">
  <diagram id="XVDPWAdi40NYLw6D2ev-" name="Page-1">
    <mxGraphModel dx="2205" dy="1965" grid="1" gridSize="10" guides="1" tooltips="1" connect="1" arrows="1" fold="1" page="0" pageScale="1" pageWidth="850" pageHeight="1100" background="none" math="0" shadow="0">
      <root>
        <mxCell id="0" />
        <mxCell id="1" parent="0" />
        <mxCell id="node10" value="&lt;p style=&quot;margin:0px;margin-top:4px;text-align:center;&quot;&gt;&lt;b&gt;Employeeview&lt;/b&gt;&lt;/p&gt;&lt;hr size=&quot;1&quot;/&gt;&lt;p style=&quot;margin:0 0 0 4px;line-height:1.6;&quot;&gt;+ Employeeview(): &lt;/p&gt;&lt;hr size=&quot;1&quot;/&gt;&lt;p style=&quot;margin:0 0 0 4px;line-height:1.6;&quot;&gt;- filterButton: Button&lt;br/&gt;- resetButton: Button&lt;br/&gt;- updateButton: Button&lt;br/&gt;- deleteButton: Button&lt;br/&gt;- addButton: Button&lt;/p&gt;&lt;hr size=&quot;1&quot;/&gt;&lt;p style=&quot;margin:0 0 0 4px;line-height:1.6;&quot;&gt;+ initialize(): void&lt;br/&gt;+ update(): void&lt;br/&gt;+ showError(String): void&lt;br/&gt;+ clearFilters(): void&lt;br/&gt;+ showMessage(String): void&lt;br/&gt;+ updateTable(List&amp;lt;Perfume&amp;gt;): void&lt;/p&gt;&lt;hr size=&quot;1&quot;/&gt;&lt;p style=&quot;margin:0 0 0 4px;line-height:1.6;&quot;&gt; deleteButton: Button&lt;br/&gt; priceFilter: String&lt;br/&gt; onlyAvailableChecked: boolean&lt;br/&gt; filterButton: Button&lt;br/&gt; addButton: Button&lt;br/&gt; updateButton: Button&lt;br/&gt; perfumeInput: Perfume&lt;br/&gt; selectedPerfume: Perfume&lt;br/&gt; brandFilter: String&lt;br/&gt; resetButton: Button&lt;/p&gt;" style="verticalAlign=top;align=left;overflow=fill;fontSize=14;fontFamily=Helvetica;html=1;rounded=0;shadow=0;comic=0;labelBackgroundColor=none;strokeWidth=1;" parent="1" vertex="1">
          <mxGeometry x="2020" y="590" width="259" height="628" as="geometry" />
        </mxCell>
        <mxCell id="node11" value="&lt;p style=&quot;margin:0px;margin-top:4px;text-align:center;&quot;&gt;&lt;b&gt;Main&lt;/b&gt;&lt;/p&gt;&lt;hr size=&quot;1&quot;/&gt;&lt;p style=&quot;margin:0 0 0 4px;line-height:1.6;&quot;&gt;+ Main(): &lt;/p&gt;&lt;hr size=&quot;1&quot;/&gt;&lt;p style=&quot;margin:0 0 0 4px;line-height:1.6;&quot;&gt;+ start(Stage): void&lt;br/&gt;+ main(String[]): void&lt;/p&gt;" style="verticalAlign=top;align=left;overflow=fill;fontSize=14;fontFamily=Helvetica;html=1;rounded=0;shadow=0;comic=0;labelBackgroundColor=none;strokeWidth=1;" parent="1" vertex="1">
          <mxGeometry x="630" y="829" width="168" height="122" as="geometry" />
        </mxCell>
        <mxCell id="hXquyUjB8Aaz2cAyujba-2" value="Model" style="shape=folder;fontStyle=1;tabWidth=110;tabHeight=30;tabPosition=left;html=1;boundedLbl=1;labelInHeader=1;container=1;collapsible=0;whiteSpace=wrap;" vertex="1" parent="1">
          <mxGeometry x="1000" y="-320" width="1690" height="870" as="geometry" />
        </mxCell>
        <mxCell id="hXquyUjB8Aaz2cAyujba-3" value="" style="html=1;strokeColor=none;resizeWidth=1;resizeHeight=1;fillColor=none;part=1;connectable=0;allowArrows=0;deletable=0;whiteSpace=wrap;" vertex="1" parent="hXquyUjB8Aaz2cAyujba-2">
          <mxGeometry width="1690.0000000000002" height="609" relative="1" as="geometry">
            <mxPoint y="30" as="offset" />
          </mxGeometry>
        </mxCell>
        <mxCell id="node7" value="&lt;p style=&quot;margin:0px;margin-top:4px;text-align:center;&quot;&gt;&lt;b&gt;Perfume&lt;/b&gt;&lt;/p&gt;&lt;hr size=&quot;1&quot;/&gt;&lt;p style=&quot;margin:0 0 0 4px;line-height:1.6;&quot;&gt;+ Perfume(Integer, String, String, Double, String): &lt;br/&gt;+ Perfume(): &lt;br/&gt;+ Perfume(Perfume): &lt;/p&gt;&lt;hr size=&quot;1&quot;/&gt;&lt;p style=&quot;margin:0 0 0 4px;line-height:1.6;&quot;&gt;- name: String&lt;br/&gt;- id: Integer&lt;br/&gt;- brand: String&lt;br/&gt;- price: Double&lt;br/&gt;- description: String&lt;/p&gt;&lt;hr size=&quot;1&quot;/&gt;&lt;p style=&quot;margin:0 0 0 4px;line-height:1.6;&quot;&gt; name: String&lt;br/&gt; description: String&lt;br/&gt; price: Double&lt;br/&gt; brand: String&lt;br/&gt; id: Integer&lt;/p&gt;" style="verticalAlign=top;align=left;overflow=fill;fontSize=14;fontFamily=Helvetica;html=1;rounded=0;shadow=0;comic=0;labelBackgroundColor=none;strokeWidth=1;" parent="hXquyUjB8Aaz2cAyujba-2" vertex="1">
          <mxGeometry x="80" y="79.0909090909091" width="346" height="276.099173553719" as="geometry" />
        </mxCell>
        <mxCell id="hXquyUjB8Aaz2cAyujba-8" style="edgeStyle=orthogonalEdgeStyle;rounded=0;orthogonalLoop=1;jettySize=auto;html=1;entryX=1;entryY=0.5;entryDx=0;entryDy=0;" edge="1" parent="hXquyUjB8Aaz2cAyujba-2" source="node4" target="node9">
          <mxGeometry relative="1" as="geometry" />
        </mxCell>
        <mxCell id="hXquyUjB8Aaz2cAyujba-9" style="edgeStyle=orthogonalEdgeStyle;rounded=0;orthogonalLoop=1;jettySize=auto;html=1;" edge="1" parent="hXquyUjB8Aaz2cAyujba-2" source="node4" target="node8">
          <mxGeometry relative="1" as="geometry" />
        </mxCell>
        <mxCell id="node4" value="&lt;p style=&quot;margin:0px;margin-top:4px;text-align:center;&quot;&gt;&lt;i&gt;&amp;lt;&amp;lt;interface&amp;gt;&amp;gt;&lt;/i&gt;&lt;br/&gt;&lt;b&gt;Observer&lt;/b&gt;&lt;/p&gt;&lt;hr size=&quot;1&quot;/&gt;&lt;p style=&quot;margin:0 0 0 4px;line-height:1.6;&quot;&gt;+ update(): void&lt;/p&gt;" style="verticalAlign=top;align=left;overflow=fill;fontSize=14;fontFamily=Helvetica;html=1;rounded=0;shadow=0;comic=0;labelBackgroundColor=none;strokeWidth=1;" parent="hXquyUjB8Aaz2cAyujba-2" vertex="1">
          <mxGeometry x="1160" y="395.45" width="133" height="84.55" as="geometry" />
        </mxCell>
        <mxCell id="hXquyUjB8Aaz2cAyujba-5" style="edgeStyle=orthogonalEdgeStyle;rounded=0;orthogonalLoop=1;jettySize=auto;html=1;entryX=1;entryY=0.5;entryDx=0;entryDy=0;" edge="1" parent="hXquyUjB8Aaz2cAyujba-2" source="node9" target="node7">
          <mxGeometry relative="1" as="geometry" />
        </mxCell>
        <mxCell id="node9" value="&lt;p style=&quot;margin:0px;margin-top:4px;text-align:center;&quot;&gt;&lt;b&gt;PerfumeRepository&lt;/b&gt;&lt;/p&gt;&lt;hr size=&quot;1&quot;/&gt;&lt;p style=&quot;margin:0 0 0 4px;line-height:1.6;&quot;&gt;+ PerfumeRepository(): &lt;/p&gt;&lt;hr size=&quot;1&quot;/&gt;&lt;p style=&quot;margin:0 0 0 4px;line-height:1.6;&quot;&gt;+ getById(Integer): Perfume&lt;br/&gt;+ addPerfume(Perfume): boolean&lt;br/&gt;+ removeObserver(Observer): void&lt;br/&gt;+ updatePerfume(Perfume): boolean&lt;br/&gt;+ filterPerfumes(String, String, boolean): List&amp;lt;Perfume&amp;gt;&lt;br/&gt;+ notifyObservers(): void&lt;br/&gt;+ addObserver(Observer): void&lt;br/&gt;+ deletePerfume(Integer): boolean&lt;br/&gt;+ searchByName(String): List&amp;lt;Perfume&amp;gt;&lt;/p&gt;&lt;hr size=&quot;1&quot;/&gt;&lt;p style=&quot;margin:0 0 0 4px;line-height:1.6;&quot;&gt; all: List&amp;lt;Perfume&amp;gt;&lt;/p&gt;" style="verticalAlign=top;align=left;overflow=fill;fontSize=14;fontFamily=Helvetica;html=1;rounded=0;shadow=0;comic=0;labelBackgroundColor=none;strokeWidth=1;" parent="hXquyUjB8Aaz2cAyujba-2" vertex="1">
          <mxGeometry x="520" y="86.2809917355372" width="382" height="237.27272727272728" as="geometry" />
        </mxCell>
        <mxCell id="node1" value="&lt;p style=&quot;margin:0px;margin-top:4px;text-align:center;&quot;&gt;&lt;b&gt;DatabaseConnection&lt;/b&gt;&lt;/p&gt;&lt;hr size=&quot;1&quot;/&gt;&lt;p style=&quot;margin:0 0 0 4px;line-height:1.6;&quot;&gt;+ DatabaseConnection(): &lt;/p&gt;&lt;hr size=&quot;1&quot;/&gt;&lt;p style=&quot;margin:0 0 0 4px;line-height:1.6;&quot;&gt;- connection: Connection&lt;/p&gt;&lt;hr size=&quot;1&quot;/&gt;&lt;p style=&quot;margin:0 0 0 4px;line-height:1.6;&quot;&gt;+ closeConnection(): void&lt;/p&gt;&lt;hr size=&quot;1&quot;/&gt;&lt;p style=&quot;margin:0 0 0 4px;line-height:1.6;&quot;&gt; connection: Connection&lt;/p&gt;" style="verticalAlign=top;align=left;overflow=fill;fontSize=14;fontFamily=Helvetica;html=1;rounded=0;shadow=0;comic=0;labelBackgroundColor=none;strokeWidth=1;" parent="hXquyUjB8Aaz2cAyujba-2" vertex="1">
          <mxGeometry x="1060" y="143.801652892562" width="213" height="102.09917355371901" as="geometry" />
        </mxCell>
        <mxCell id="hXquyUjB8Aaz2cAyujba-4" style="edgeStyle=orthogonalEdgeStyle;rounded=0;orthogonalLoop=1;jettySize=auto;html=1;entryX=0.988;entryY=0.429;entryDx=0;entryDy=0;entryPerimeter=0;" edge="1" parent="hXquyUjB8Aaz2cAyujba-2" source="node1" target="node9">
          <mxGeometry relative="1" as="geometry" />
        </mxCell>
        <mxCell id="hXquyUjB8Aaz2cAyujba-7" style="edgeStyle=orthogonalEdgeStyle;rounded=0;orthogonalLoop=1;jettySize=auto;html=1;" edge="1" parent="hXquyUjB8Aaz2cAyujba-2" source="node8" target="node0">
          <mxGeometry relative="1" as="geometry" />
        </mxCell>
        <mxCell id="node8" value="&lt;p style=&quot;margin:0px;margin-top:4px;text-align:center;&quot;&gt;&lt;b&gt;StockRepository&lt;/b&gt;&lt;/p&gt;&lt;hr size=&quot;1&quot;/&gt;&lt;p style=&quot;margin:0 0 0 4px;line-height:1.6;&quot;&gt;+ StockRepository(): &lt;/p&gt;&lt;hr size=&quot;1&quot;/&gt;&lt;p style=&quot;margin:0 0 0 4px;line-height:1.6;&quot;&gt;+ removeObserver(Observer): void&lt;br/&gt;+ addObserver(Observer): void&lt;br/&gt;+ updateStockQuantity(int, int): boolean&lt;br/&gt;+ notifyObservers(): void&lt;/p&gt;&lt;hr size=&quot;1&quot;/&gt;&lt;p style=&quot;margin:0 0 0 4px;line-height:1.6;&quot;&gt; all: List&amp;lt;Stock&amp;gt;&lt;/p&gt;" style="verticalAlign=top;align=left;overflow=fill;fontSize=14;fontFamily=Helvetica;html=1;rounded=0;shadow=0;comic=0;labelBackgroundColor=none;strokeWidth=1;" parent="hXquyUjB8Aaz2cAyujba-2" vertex="1">
          <mxGeometry x="520" y="355.19008264462815" width="284" height="140.20661157024793" as="geometry" />
        </mxCell>
        <mxCell id="hXquyUjB8Aaz2cAyujba-6" style="edgeStyle=orthogonalEdgeStyle;rounded=0;orthogonalLoop=1;jettySize=auto;html=1;entryX=0.997;entryY=0.64;entryDx=0;entryDy=0;entryPerimeter=0;" edge="1" parent="hXquyUjB8Aaz2cAyujba-2" source="node1" target="node8">
          <mxGeometry relative="1" as="geometry">
            <Array as="points">
              <mxPoint x="930" y="130.1404958677686" />
              <mxPoint x="930" y="445.06611570247935" />
            </Array>
          </mxGeometry>
        </mxCell>
        <mxCell id="node0" value="&lt;p style=&quot;margin:0px;margin-top:4px;text-align:center;&quot;&gt;&lt;b&gt;Stock&lt;/b&gt;&lt;/p&gt;&lt;hr size=&quot;1&quot;/&gt;&lt;p style=&quot;margin:0 0 0 4px;line-height:1.6;&quot;&gt;+ Stock(Integer, Integer, Integer, Integer): &lt;/p&gt;&lt;hr size=&quot;1&quot;/&gt;&lt;p style=&quot;margin:0 0 0 4px;line-height:1.6;&quot;&gt;- perfumeId: Integer&lt;br/&gt;- quantity: Integer&lt;br/&gt;- stockId: Integer&lt;br/&gt;- storeId: Integer&lt;/p&gt;&lt;hr size=&quot;1&quot;/&gt;&lt;p style=&quot;margin:0 0 0 4px;line-height:1.6;&quot;&gt; perfumeId: Integer&lt;br/&gt; quantity: Integer&lt;br/&gt; stockId: Integer&lt;br/&gt; storeId: Integer&lt;/p&gt;" style="verticalAlign=top;align=left;overflow=fill;fontSize=14;fontFamily=Helvetica;html=1;rounded=0;shadow=0;comic=0;labelBackgroundColor=none;strokeWidth=1;" parent="hXquyUjB8Aaz2cAyujba-2" vertex="1">
          <mxGeometry x="100" y="388.2644628099174" width="298" height="198.44628099173556" as="geometry" />
        </mxCell>
        <mxCell id="hXquyUjB8Aaz2cAyujba-16" style="edgeStyle=orthogonalEdgeStyle;rounded=0;orthogonalLoop=1;jettySize=auto;html=1;" edge="1" parent="1" source="hXquyUjB8Aaz2cAyujba-11" target="node11">
          <mxGeometry relative="1" as="geometry" />
        </mxCell>
        <mxCell id="hXquyUjB8Aaz2cAyujba-11" value="Controller" style="shape=folder;fontStyle=1;tabWidth=110;tabHeight=30;tabPosition=left;html=1;boundedLbl=1;labelInHeader=1;container=1;collapsible=0;whiteSpace=wrap;" vertex="1" parent="1">
          <mxGeometry x="1000" y="620" width="660" height="540" as="geometry" />
        </mxCell>
        <mxCell id="hXquyUjB8Aaz2cAyujba-12" value="" style="html=1;strokeColor=none;resizeWidth=1;resizeHeight=1;fillColor=none;part=1;connectable=0;allowArrows=0;deletable=0;whiteSpace=wrap;" vertex="1" parent="hXquyUjB8Aaz2cAyujba-11">
          <mxGeometry width="660" height="378" relative="1" as="geometry">
            <mxPoint y="30" as="offset" />
          </mxGeometry>
        </mxCell>
        <mxCell id="node3" value="&lt;p style=&quot;margin:0px;margin-top:4px;text-align:center;&quot;&gt;&lt;b&gt;EmployeeController&lt;/b&gt;&lt;/p&gt;&lt;hr size=&quot;1&quot;/&gt;&lt;p style=&quot;margin:0 0 0 4px;line-height:1.6;&quot;&gt;+ EmployeeController(Employeeview, PerfumeRepository, StockRepository): &lt;/p&gt;&lt;hr size=&quot;1&quot;/&gt;&lt;p style=&quot;margin:0 0 0 4px;line-height:1.6;&quot;&gt;- loadPerfumes(): void&lt;br/&gt;- updatePerfume(): void&lt;br/&gt;- deletePerfume(): void&lt;br/&gt;- resetFilters(): void&lt;br/&gt;- initController(): void&lt;br/&gt;+ refreshTable(): void&lt;br/&gt;- addPerfume(): void&lt;br/&gt;- applyFilters(): void&lt;/p&gt;" style="verticalAlign=top;align=left;overflow=fill;fontSize=14;fontFamily=Helvetica;html=1;rounded=0;shadow=0;comic=0;labelBackgroundColor=none;strokeWidth=1;" parent="hXquyUjB8Aaz2cAyujba-11" vertex="1">
          <mxGeometry x="100" y="120" width="449" height="275" as="geometry" />
        </mxCell>
        <mxCell id="hXquyUjB8Aaz2cAyujba-13" style="edgeStyle=orthogonalEdgeStyle;rounded=0;orthogonalLoop=1;jettySize=auto;html=1;" edge="1" parent="1" source="node4" target="node10">
          <mxGeometry relative="1" as="geometry" />
        </mxCell>
        <mxCell id="hXquyUjB8Aaz2cAyujba-15" style="edgeStyle=orthogonalEdgeStyle;rounded=0;orthogonalLoop=1;jettySize=auto;html=1;entryX=0;entryY=0;entryDx=660;entryDy=285;entryPerimeter=0;" edge="1" parent="1" source="node10" target="hXquyUjB8Aaz2cAyujba-11">
          <mxGeometry relative="1" as="geometry" />
        </mxCell>
      </root>
    </mxGraphModel>
  </diagram>
</mxfile>
